<svg xmlns="http://www.w3.org/2000/svg" preserveAspectRatio="xMidYMid" width="155" height="28" viewBox="0 0 155 28"><defs><style>.cls-2{fill:#fff}</style></defs><path d="M146.726 27.972v-8.491h-.003V8.846H155v10.956l-8.274 8.17zm-.562-19.729h-10.569V-.002h11.096L155 8.202v.041h-8.277-.559zm-.048 19.763h-11.173l-8.277-8.173H146.116v8.173zM126.635 8.202l8.308-8.204h.042V19.231h-8.35V8.202zm-4.178 17.375h-18.903s-1.398.275-1.398-1.58V3.641s.025-.602.407-.979c.381-.375 1.706-.215 1.706-.215h16.917s2.211-.06 1.22 1.519c-.991 1.579-1.5 2.282-1.5 2.282s-.304.602-1.879.602h-9.909s-1.21-.221-1.19.892c.021 1.114-.005 2.141-.005 2.141s-.177 1.053 1.728 1.103c1.778.047 9.198 0 9.198 0s1.372-.226 1.372.903v2.782s.203 1.053-1.22 1.053h-9.909s-1.169-.175-1.143.777c.025.953 0 3.36 0 3.36s.025.928 1.372.928h10.214s1.168-.302 1.956 1.002a57.206 57.206 0 0 0 1.524 2.382s.84 1.404-.558 1.404zm-28.981.014H78.513s-2.21.075-.914-1.836c1.295-1.909 1.436-2.408 1.969-2.758.534-.349.457-.15 3.115-.14 4.177.016 9.474 0 9.474 0s1.297.015 1.297-1.333v-2.682s.241-1.063-1.36-1.063H81.829s-1.856.409-3.582-1.61c-1.271-1.486-1.067-3.82-1.067-3.82v-3.52s.076-.937.419-1.61c.343-.675.8-1.199.8-1.199 1.372-1.761 3.37-1.498 3.37-1.498H96.83s2.201-.449 1.642.475c-.606 1.001-2.313 3.233-2.313 3.233s-.115.711-2.439.711h-9.817s-1.311-.05-1.311 1.149c0 .629.03 1.959.03 1.959s-.069 1.086 1.379 1.086h10.1s2.249.112 3.316 1.385c1.067 1.274 1.372 3.109 1.372 3.109v4.831s-.041 1.751-1.106 2.997c-1.803 2.109-4.207 2.134-4.207 2.134zm-18.903-.009c-1.586.013-3.491 0-3.491 0s-1.03.164-1.525-.849c-.495-1.013-1.524-3.226-1.524-3.226s-.191-.862-1.51-.847c-1.501.016-8.666 0-8.666 0s-1.105-.184-1.525.829c-.323.78-1.296 2.944-1.296 2.944s-.571 1.051-1.486 1.088c-.914.037-3.278 0-3.278 0s-2.019.225-.99-1.801c1.029-2.025 9.619-19.864 9.619-19.864s.137-.54.557-.99c.419-.451 1.067-.451 1.067-.451h3.315s.61-.037.953.188c.343.225.572.713.572.713l9.909 20.18s.883 2.07-.701 2.086zm-9.627-11.014l-2.153-4.839s-.21-.75-.61-.731c-.364.017-.668.769-.668.769s-1.535 3.259-2.248 4.801c-.667 1.444 1.181 1.313 1.181 1.313h3.583c1.487 0 .915-1.313.915-1.313zM45.953 25.541h-2.897a1.207 1.207 0 0 1-1.219-1.196v-7.926h-.046a.598.598 0 0 0-.589-.498H30.836a.597.597 0 0 0-.589.498H30.2v7.976c0 .661-.546 1.196-1.219 1.196h-2.897a1.208 1.208 0 0 1-1.219-1.196V3.659c0-.661.546-1.196 1.219-1.196h2.897c.673 0 1.219.535 1.219 1.196v6.779h.026c0 .331.273.598.61.598h10.366c.336 0 .61-.267.61-.598h.025V3.609c0-.66.546-1.196 1.219-1.196h2.897c.673 0 1.22.536 1.22 1.196v20.736c0 .662-.547 1.196-1.22 1.196zM20.05 6.476s-.228.79-2.096.828c-1.867.037-10.763.045-10.763.045s-1.928-.233-1.928 3.078v7.578s.229 2.77 3.087 2.808c2.858.038 10.214 0 10.214 0s1.219-.151 1.829.941c.61 1.091 1.433 2.152 1.433 2.152s1.006 1.686-.671 1.686H6.216s-2.363.075-4.345-1.844c-1.982-1.92-1.875-3.335-1.875-3.335V8.019s.198-2.258 1.837-3.763c1.638-1.505 4.345-1.844 4.345-1.844h14.596s2.097-.038 1.258 1.205c-.839 1.241-1.982 2.859-1.982 2.859z" id="path-1" class="cls-2" fill-rule="evenodd"/></svg>