<svg xmlns="http://www.w3.org/2000/svg" preserveAspectRatio="xMidYMid" width="139" height="36" viewBox="0 0 139 36"><defs><style>.cls-2{fill:#fff}</style></defs><path d="M139 35.525h-4.542l-4.724-11.014-3.271 4.479v6.535h-4.179V7.142l4.179-2.3-.061 18.641 2.424-3.631 4.421-6.477h4.724l-5.39 7.444L139 35.525zm-25.316-12.527c0-4.054-1.454-6.053-4.422-6.053-2.907 0-4.36 1.878-4.36 5.63v12.95h-4.18v-22.15h4.18v2.179c1.09-1.694 2.906-2.602 5.33-2.602 5.087 0 7.691 3.268 7.691 9.865v12.708h-4.239V22.998zM92.183 33.347c-1.696 1.754-3.635 2.662-5.875 2.662-1.999 0-3.635-.545-4.968-1.694-1.635-1.392-2.421-3.268-2.421-5.81 0-2.36.786-4.115 2.421-5.386 1.515-1.15 3.514-1.755 6.118-1.755 1.938 0 3.513.304 4.725.847v-1.634c0-2.481-1.394-3.752-4.059-3.752-2.12 0-3.997.424-5.572 1.391l-1.635-3.267c2.059-1.332 4.482-1.997 7.329-1.997 2.483 0 4.421.605 5.814 1.815 1.514 1.332 2.241 3.147 2.241 5.568v15.19h-4.118v-2.178zm0-7.263c-1.333-.605-2.969-.967-4.846-.967-2.968 0-4.421 1.089-4.421 3.268 0 2.481 1.332 3.69 4.057 3.69 2.12 0 3.877-.967 5.21-2.843v-3.148zm-23.198 9.925c-2.12 0-3.937-.908-5.39-2.601v2.117h-4.119V7.082l4.119-2.24v10.712c1.817-1.694 3.694-2.602 5.572-2.602 2.483 0 4.422.968 5.875 2.784 1.574 2.057 2.423 5.083 2.423 9.078 0 3.571-.908 6.414-2.605 8.472-1.514 1.756-3.513 2.723-5.875 2.723zm-.605-19.064c-1.756 0-3.332.909-4.846 2.846v9.26c1.514 1.935 3.149 2.904 5.027 2.904 3.15 0 4.664-2.361 4.664-6.96 0-5.386-1.575-8.05-4.845-8.05zM50.512 9.623C47 5.871 42.639 3.995 37.551 3.995c-5.087 0-9.449 1.876-13.021 5.628l-.061.061h-5.21l.183-.303c2.059-2.904 4.784-5.204 7.994-6.899C30.646.787 34.039.001 37.551.001c3.574 0 6.905.786 10.115 2.481 3.27 1.695 5.935 3.995 7.995 6.899l.181.303h-5.208l-.122-.061zm-30.889 7.141l-.061.061-2.422 2.966-.121.12-.061-.12c-1.575-1.695-3.392-2.542-5.451-2.542-1.998 0-3.634.665-4.966 2.058-1.272 1.331-1.938 3.026-1.938 5.144 0 2.119.666 3.812 1.938 5.143 1.332 1.392 2.968 2.059 4.966 2.059 2.059 0 3.876-.848 5.451-2.543l.061-.12.121.12 2.422 2.965.061.061-.061.061c-2.12 2.542-4.784 3.812-7.873 3.812-3.271 0-5.996-1.028-8.177-3.026C1.151 30.866 0 27.96 0 24.451c0-3.571 1.151-6.416 3.512-8.534 2.181-1.997 4.906-3.025 8.177-3.025 3.089 0 5.753 1.27 7.873 3.811l.061.061zm7.207 18.761h-4.602v-22.21h4.602v22.21zm7.995-26.748h.061l4.422-2.422v6.96h4.664v4.176h-4.664v11.861c0 1.695.727 2.481 2.119 2.481 1.091 0 2.12-.363 3.392-1.15l.243-.12-.061.303-.969 3.934-.06.059h-.061c-1.03.666-2.423 1.09-4.059 1.03-1.453-.061-2.725-.605-3.634-1.634-.908-1.089-1.393-2.542-1.393-4.238V17.491h-3.876v-4.176h3.876V8.777zm18.231 26.748h-4.663v-22.21h4.663v22.21z" id="path-1" class="cls-2" fill-rule="evenodd"/></svg>