<svg xmlns="http://www.w3.org/2000/svg" preserveAspectRatio="xMidYMid" width="144" height="46" viewBox="0 0 144 46"><defs><style>.cls-2{fill:#fff}</style></defs><path d="M141.331 14.834c-.72 0-1.305-.238-1.751-.716a2.355 2.355 0 0 1-.723-1.737c0-.24.028-.463.081-.672.108-.415.321-.771.642-1.066.446-.476 1.031-.715 1.751-.715.685 0 1.271.204 1.753.715.48.443.72 1.022.72 1.738 0 .681-.24 1.261-.72 1.737-.482.511-1.068.716-1.753.716zm-2.939 2.969c1.503-.787 2.777-1.25 3.433-1.25 2.032 0 1.824 1.912 1.824 4.032v10.15c0 2.328.048 4.18.35 4.763h-4.873c.339-.619.352-2.082.352-4.727v-9.179c0-2.236-.302-3.271-1.086-3.789zm-5.861 18.077c-1.926 0-3.293-.591-4.171-1.738-.596-.8-.91-2.259-.91-4.345V19.47h-2.909v-2.257l2.909-.348.314-4.484 3.857-.279v4.797h4.767v2.571h-4.767v10.466c0 1.981.84 2.955 2.454 2.955 1.016 0 2.032-.244 3.118-.801l.353 2.434c-1.754.904-3.437 1.356-5.015 1.356zm-14.135-2.638c.012-.773.012-1.698.012-2.786v-7.298c0-2.504-.773-3.652-2.63-3.652-1.438 0-3.119 1.008-4.451 2.191v9.177c0 1.051.018 2.021.057 2.825.041.792.101 1.418.188 1.799h-4.591c.174-.766.21-2.294.21-4.486v-9.49c0-2.329-.379-3.266-1.086-3.719 1.634-.812 2.635-1.216 3.378-1.216 1.36 0 1.667 1.186 1.702 2.676 1.615-1.634 3.89-2.887 6.031-2.887 2.101 0 3.644.731 4.589 2.226.213.349.379.795.501 1.34.184.809.272 1.843.272 3.11v7.753c0 3.067.132 4.351.279 4.693h-4.632c.151-.377.155-1.255.171-2.256zm-18.951.411c-1.473 1.496-3.281 2.33-5.417 2.295-3.12-.068-5.61-1.842-5.679-5.213-.14-5.943 6.098-7.823 11.006-6.327 0-2.677.174-5.458-3.401-5.458-1.223 0-2.474.149-3.659.479-.715.201-1.407.468-2.054.808l.49-2.627c1.824-.8 3.458-1.197 5.453-1.197 5.05 0 7.377 1.669 7.377 6.848v7.961c0 1.459.039 3.597.35 4.276H99.74c-.201-.664-.295-1.845-.295-1.845zm-.09-7.263c-3.995-1.044-6.764.904-6.764 3.824 0 1.979 1.19 2.78 3.083 2.78 1.367 0 2.63-.557 3.681-1.391V26.39zm-11.609-6.744c-1.332 0-2.664.695-3.961 2.154v9.352c0 2.746.108 4.029.245 4.346h-4.592c.066-.288.112-.642.143-1.053.068-.884.068-2.023.068-3.26v-9.663c0-2.119-.352-3.291-1.092-3.719 1.315-.682 2.567-1.216 3.375-1.216 1.4 0 1.676 1.285 1.676 2.712 1.298-1.947 2.91-2.923 4.769-2.923.35 0 .699.037 1.014.107l-.595 3.198c-.315-.035-.631-.035-1.05-.035zM71.822 33.653c-1.472 1.496-3.259 2.33-5.397 2.295-3.121-.068-5.608-1.842-5.678-5.213-.141-5.943 6.098-7.823 11.006-6.327 0-2.677.175-5.458-3.401-5.458-1.962 0-3.995.383-5.713 1.287l.49-2.608c1.823-.799 3.437-1.216 5.434-1.216 5.048 0 7.396 1.669 7.396 6.848v7.961c0 1.459.07 3.231.35 4.276h-4.17l-.317-1.845zm-.069-7.263c-3.995-1.044-6.765.904-6.765 3.824 0 1.979 1.191 2.78 3.085 2.78 1.366 0 2.629-.557 3.68-1.391V26.39zm-13.065 7.856c-2.98 1.216-5.959 1.842-8.973 1.842-4.453 0-7.888-1.218-10.375-3.651-2.454-2.432-3.88-5.691-3.88-9.863 0-4.205 1.532-7.655 4.264-10.332 2.7-2.641 6.275-3.964 10.727-3.964 3.816 0 5.191.485 7.224 1.18l-.67 3.34a17.692 17.692 0 0 0-6.554-1.252c-2.874 0-5.125 1.009-7.018 2.954-1.893 1.983-2.839 4.519-2.839 7.579 0 3.338.84 6.013 2.558 7.961 1.683 1.946 3.899 2.954 6.914 2.954 1.577 0 2.874-.209 3.959-.626V25.8c0-.451-.007-.867-.022-1.253h-3.538c-.05-1.163-.203-2.384-.386-3.093l8.609.291c-.316 1.009-.35 2.245-.35 4.366v3.372c0 2.364.14 3.963.35 4.763zm-29.989 1.427c-2.024-7.863-5.908-11.53-7.246-12.597 1.097-.144 3.941-.123 7.081 3.019 1.444 1.445 2.171 3.011 2.171 4.675 0 .551-.081 1.114-.241 1.685-.421 1.504-1.297 2.673-1.765 3.218zM23.39 21.34a6.11 6.11 0 0 1-2.487-.127c3.319-2.647 5.319-5.842 6.418-8.085.965-1.971 1.411-3.524 1.567-4.135a4.745 4.745 0 0 1 1.64 2.635c.077.348.115.706.115 1.075 0 1.373-.534 2.883-1.598 4.505-1.558 2.379-3.513 3.808-5.655 4.132zm-2.943-.729a36.429 36.429 0 0 1-.188-3.422c0-.361.009-.718.028-1.06l.023-.427c.122-2.373.446-8.672 2.968-10.884.634-.556 1.377-.81 2.207-.75.097.011 2.557.339 2.875 4.289-.063.247-.551 2.095-1.711 4.431-1.113 2.239-3.085 5.384-6.202 7.823zm-3.891 20.568c-.023.054-2.125 4.82-5.643 4.82-3.224 0-4.523-4.211-4.715-4.908.423-.297 2.329-1.687 4.62-4.178a39.22 39.22 0 0 0 7.731-12.54c.492 1.636.683 3.335.683 4.972 0 2.269-.359 4.423-.762 6.126-.784 3.304-1.903 5.684-1.914 5.708zm-.746-26.676c-1.772-2.875-4.932-6.925-9.946-9.964.137-.518.862-2.966 2.602-4.04.818-.505 1.751-.638 2.777-.394 2.134.504 3.973 2.181 5.313 4.848 1.423 2.83 2.218 6.679 2.298 11.126l.001.159c0 .477-.042 1.962-.508 3.441-.3-.841-1.08-2.814-2.537-5.176zm2.022 5.855c-.272.186-1.157.718-2.661.98-1.692.294-4.532.296-8.455-1.367C2.687 18.268 0 14.926 0 11.633l.001-.086c.038-2.686 1.805-4.853 4.974-6.108.372.189 2.563 1.356 5.26 3.87a30.58 30.58 0 0 1 7.597 11.049zm-3.043 2.928c1.759-.069 2.879.285 3.249.425-2.585 6.152-5.935 10.274-8.301 12.654-2.32 2.334-4.161 3.49-4.526 3.709C2.313 38.653.496 36.402.347 34.04a5.252 5.252 0 0 1-.011-.331c0-2.457 1.723-4.868 5.008-6.991 4.17-2.697 7.437-3.356 9.445-3.432zm5.795 3.831v-.168c0-1.639.194-2.889.29-3.406 4.699 3.449 7.026 12.157 7.19 12.791-.574 3.49-2.921 3.181-3.02 3.167l-.014-.002h-.014a2.93 2.93 0 0 1-2.15-.88c-2.143-2.12-2.285-7.585-2.285-10.267l.002-.621.001-.614z" id="path-1" class="cls-2" fill-rule="evenodd"/></svg>