<svg xmlns="http://www.w3.org/2000/svg" preserveAspectRatio="xMidYMid" width="165" height="48" viewBox="0 0 165 48"><defs><style>.cls-2{fill:#fff}</style></defs><path d="M151.118 18.405c-.208.138-1.616.891-2.872.915-1.903.047-3.402-.915-4.489-2.388a9.551 9.551 0 0 1-.564-.878c-2.194-3.575-7.332-9.289-17.698-3.608-.01.002-.017.007-.025.011l-11.586 6.713c-1.117.617-1.881.986-3.009 1.008-2.045.048-3.765-1.015-4.849-2.663l-.255-.413c-.022-.042-.042-.082-.069-.125l-.005-.005c-.068-.109-.134-.23-.21-.34-2.231-3.576-7.286-8.939-17.525-3.325-.046.019-12.024 6.947-12.024 6.947-4.338 1.964-7.144-.366-8.635-1.785l-3.546-4.35 6.854-3.912.003-.002s9.362-5.35 13.388-7.644c6.659-3.164 10.653-1.393 13.151 1.128.387.391.742.797 1.06 1.205.36.468.671.923.953 1.366l.656 1.071.128.216a.994.994 0 0 0 .112.173c.965 1.429 3.946 3.38 7.837 1.779 0 0 10.362-5.912 13.54-7.754 6.718-3.224 10.736-1.449 13.249 1.087.39.387.742.797 1.058 1.208.59.754 1.073 1.521 1.474 2.199l.26.452c.076.134.176.272.291.418 1.124 1.391 3.987 3.042 7.661 1.529 0 0 6.707-3.799 7.636-4.255 2.208-1.097 4.988-2.445 7.601.534 2.922 3.337 4.345 5.479 4.345 5.479l-13.896 8.009zM73.055 35.253v12.294h-5.238V35.85c0-2.979-1.11-5.237-3.962-5.237-2.085 0-3.537 1.492-4.088 3.065-.169.467-.213 1.105-.213 1.7v12.169h-5.282V32.995c0-2.382-.044-4.383-.167-6.169h4.597l.255 3.112h.129c.892-1.62 3.152-3.58 6.6-3.58 3.622 0 7.369 2.34 7.369 8.895zm-27.173 9.998h-.13c-1.279 1.619-3.451 2.764-6.13 2.764-4.176 0-6.519-3.019-6.519-6.169 0-5.235 4.638-7.869 12.311-7.828v-.34c0-1.363-.556-3.618-4.22-3.618-2.045 0-4.173.642-5.578 1.531l-1.022-3.402c1.533-.937 4.215-1.831 7.494-1.831 6.647 0 8.564 4.216 8.564 8.722v7.49c0 1.871.086 3.698.297 4.977h-4.73l-.337-2.296zm-.343-7.826c-3.706-.085-7.239.722-7.239 3.868 0 2.042 1.322 2.979 2.982 2.979 2.082 0 3.62-1.365 4.088-2.852.125-.384.169-.807.169-1.147v-2.848zm-19.908-1.323c0-3.444-1.193-5.489-3.708-5.489-1.787 0-3.11 1.277-3.661 2.769-.127.504-.257 1.147-.257 1.741v12.424h-5.111v-12c0-2.889-1.148-4.934-3.578-4.934-1.957 0-3.276 1.534-3.749 2.98-.211.508-.299 1.105-.299 1.7v12.254H.159V32.995c0-2.382-.041-4.383-.171-6.169h4.516l.215 3.068h.125c1.021-1.619 2.897-3.536 6.39-3.536 2.728 0 4.856 1.535 5.75 3.829h.086c.725-1.147 1.574-1.998 2.554-2.593 1.151-.807 2.473-1.236 4.175-1.236 3.451 0 6.941 2.34 6.941 8.981v12.208h-5.109V36.102zm58.978-9.744c2.851 0 4.898 1.192 5.834 2.728h.088v-10.58h5.236v23.213c0 2.128.088 4.427.171 5.828h-4.682l-.213-3.275h-.088c-1.235 2.3-3.75 3.743-6.772 3.743-4.942 0-8.857-4.213-8.857-10.59-.045-6.937 4.297-11.067 9.283-11.067zm1.237 17.444c2.126 0 4.002-1.448 4.511-3.703.13-.465.174-.978.174-1.531v-3.104c0-.423-.044-.935-.13-1.363-.468-2.038-2.128-3.698-4.513-3.698-3.365 0-5.241 2.979-5.241 6.849 0 3.784 1.876 6.55 5.199 6.55zm18.911 3.745h-5.285V26.826h5.285v20.721zm8.258-16.768h.174c1.023-2.93 3.448-3.953 5.667-3.953.509 0 .808-.083 1.232 0v4.599a7.25 7.25 0 0 0-1.531-.171c-2.518 0-4.22 1.617-4.687 3.952a9.18 9.18 0 0 0-.169 1.623v10.718h-5.244V33.509c0-2.807-.041-4.811-.166-6.683h4.557l.167 3.953zm14.782 16.768h-5.28V26.826h5.28v20.721z" id="path-1" class="cls-2" fill-rule="evenodd"/></svg>