<svg xmlns="http://www.w3.org/2000/svg" preserveAspectRatio="xMidYMid" width="180" height="38" viewBox="0 0 180 38"><defs><style>.cls-2{fill:#fff}</style></defs><path d="M176.38 13.564l-4.705 4.361 5.611 10.73-.216.29-4.019.109-.289-.219c-.938-2.558-5.032-10.582-5.032-10.582-1.05 4.619-1.268 5.709-2.171 10.509l-.255.22-3.657.072-.144-.219s1.933-8.062 3.602-15.527c.783-3.491 2.001-9.016 2.48-12.365l.253-.218 3.944-.655.219.255c-.728 2.513-4.163 17.419-4.163 17.419 2.595-2.283 6.915-6.836 7.492-7.455l.398-.218h4.163l.11.326c-1.027.817-2.931 2.548-3.621 3.167zm-18.823 15.427l-3.693.109-.146-.255c.531-2.449 2.759-10.651 2.789-13.201.021-2.182-1.34-2.909-3.042-2.909-2.244 0-3.728 1.127-4.815 1.928-1.338 6.108-1.773 8.037-2.93 14.11l-.255.218-3.691.109-.181-.255s1.1-4.453 2.09-9.08c.777-3.624 1.416-6.607 1.709-9.101l.255-.256c1.702-.218 2.099-.291 3.837-.654l.18.254-.508 1.854c1.415-.945 3.224-2.218 6.229-2.218 1.194 0 5.102.327 5.102 4.727 0 2.63-2.288 11.833-2.641 14.402l-.289.218zm-19.881-.256l-.255.256-3.4.073-.182-.256.253-1.454c-.615.509-2.208 1.852-5.284 1.852-3.693 0-6.697-2.616-6.697-7.162 0-2.871 1.376-6 2.894-7.817 3.368-3.965 8.039-4.182 11.368-4.182l4.995.036.18.29-1.627 7.055c-1.267 5.599-1.522 6.982-2.245 11.309zm-2.062-15.964c-1.194 0-3.548.073-5.683 1.528-3.803 2.618-3.875 7.309-3.875 7.49 0 1.747.942 4.546 4.235 4.546.978 0 2.594-.23 4.345-1.782l2.605-11.745c-.544 0-1.083-.037-1.627-.037zm-30.049 16.22h-1.991l-2.534.036-.182-.219c.24-1.104 1.804-7.564 3.396-14.83 1.366-6.234 2.316-10.121 2.649-13.025l.289-.255 3.947-.691.18.254-1.012 4.038-1.666 6.983c1.522-.838 2.965-1.638 5.285-1.638 3.584 0 6.589 2.436 6.589 7.018 0 1.855-.581 5.347-3.005 8.147-3.259 3.745-7.278 3.999-11.945 4.182zm6.768-16.402c-1.846 0-3.149.8-4.309 1.528 0 0-2.524 11.145-2.75 12.036 2.049.097 5.067.036 7.421-1.562 2.679-1.855 3.946-5.091 3.946-7.42 0-3.309-1.991-4.582-4.308-4.582zM85.798 29.064l-2.06 8.692-.254.181c-.832 0-1.629-.037-2.462-.037-1.229 0-2.315.073-3.655.11l-.181-.254s1.275-3.857 2.862-10.48c1.666-6.955 3.224-15.102 3.361-16.76l.254-.254 6.19-1.018.217.255-.435 1.6c.942-.655 2.499-1.745 4.848-1.745 3.623 0 6.047 2.726 6.047 7.345 0 2.618-.905 5.709-2.787 8.002-3.584 4.399-8.108 4.363-11.945 4.363zm5.829-15.419c-1.05 0-1.847.544-2.607 1.054l-2.317 10.327c1.717.207 3.583-.366 4.85-1.417 1.449-1.238 2.752-3.782 2.752-6.546 0-3.055-1.955-3.418-2.678-3.418zm-12.483.255l-3.33-.074s-.676 2.822-1.623 6.751c-1.023 4.248-.484 4.033.54 4.438.874.348 2.024-.097 2.677-.314l.214.181-1.084 3.781-.29.291c-1.158.218-2.52.399-3.257.399-2.734 0-6.745-.415-5.048-7.341 1.148-4.684 1.97-8.186 1.97-8.186l-2.533.074-.217-.292 1.05-3.672.254-.182h2.388l1.05-4.691.253-.256c2.714-.618 3.439-.8 5.935-1.527l.218.217-1.592 6.329 3.692-.072.145.254c-.508 1.526-.652 1.926-1.122 3.637l-.29.255zM53.002 29.426c-4.615 0-8.868-3.195-7.665-10.1.94-5.396 4.13-10.39 11.888-10.008 5.409.263 8.592 3.99 7.533 10.054-1.556 8.916-7.079 10.054-11.756 10.054zm3.302-16.254c-1.7 0-3.628.87-4.739 6.167-1.236 5.892 1.229 6.269 2.424 6.269 1.085 0 3.396-.593 4.548-6.236.805-3.948.165-6.2-2.233-6.2zM17.877 35.92c-9.874 0-17.878-8.041-17.878-17.96C-.001 8.045 7.993.009 17.856-.001v6.489C11.56 6.499 6.46 11.631 6.46 17.96c0 6.335 5.111 11.47 11.417 11.47 6.269 0 11.419-5.088 11.419-11.516l6.459.005c0 9.96-8.004 18.001-17.878 18.001zm10.089-23.485c-2.511 0-4.547-2.046-4.547-4.568S25.455 3.3 27.966 3.3c2.51 0 4.544 2.045 4.544 4.567 0 2.522-2.034 4.568-4.544 4.568zM17.922 25.924c-4.382 0-7.932-3.566-7.932-7.964 0-4.4 3.55-7.969 7.93-7.969s7.93 3.569 7.93 7.969c0 4.398-3.55 7.964-7.928 7.964z" id="path-1" class="cls-2" fill-rule="evenodd"/></svg>