<svg xmlns="http://www.w3.org/2000/svg" preserveAspectRatio="xMidYMid" width="186" height="39" viewBox="0 0 186 39"><defs><style>.cls-2{fill:#fff}</style></defs><path d="M178.213 32.323v-1.27c.703 0 1.117-.115 1.378-.346.202-.211.304-.702.304-1.5V12.852c0-.837-.092-1.392-.265-1.67-.232-.35-.724-.526-1.466-.526h-.568v-1.18l6.592-.51v20.249c0 1.04.279 1.626.839 1.751.221.058.549.087.973.087v1.27h-7.787zm-6.89-1.386v-.77c-.395.751-.983 1.366-1.764 1.847-.838.529-1.72.789-2.64.789-1.619 0-2.839-.489-3.663-1.471-.632-.759-.945-1.654-.945-2.673 0-1.733.839-3.079 2.506-4.041 1.282-.746 3.383-1.405 6.322-1.977V20.14c0-1.818-.992-2.724-2.978-2.724-.737 0-1.427.18-2.072.538a2.843 2.843 0 0 0-.74.587c.19-.065.397-.103.626-.103 1.344 0 2.023.637 2.023 1.906 0 .513-.226.979-.674 1.394-.443.418-.997.627-1.667.627a2.392 2.392 0 0 1-1.59-.574c-.531-.455-.792-1.081-.792-1.872 0-1.147.569-2.07 1.712-2.775 1.142-.707 2.549-1.06 4.226-1.06 4.144 0 6.221 1.833 6.221 5.495v7.587c0 1.26.457 1.886 1.372 1.886h.217v1.271h-5.7c.023-.261.023-.732 0-1.386zm-.184-7.002c-1.572.309-2.661.717-3.268 1.231-.722.616-1.089 1.587-1.089 2.934 0 .828.173 1.452.511 1.885.337.434.752.645 1.243.645.829 0 1.494-.452 2.005-1.366.395-.683.598-1.683.598-3.001v-2.328zm-17.469 7.118h.419c.627 0 1.021-.202 1.181-.587.1-.278.149-.971.149-2.087v-8.267c0-1.121-.107-1.778-.338-1.978-.222-.197-.554-.295-.992-.295h-.42v-1.267h6.048v11.807c0 1.299.077 2.058.241 2.279.203.27.579.395 1.147.395h.434v1.27h-7.869v-1.27zm3.74-16.292a2.458 2.458 0 0 1-1.831-.777 2.522 2.522 0 0 1-.757-1.841c0-.714.251-1.319.757-1.821a2.51 2.51 0 0 1 1.831-.753c.718 0 1.33.253 1.841.753.515.502.771 1.106.771 1.821 0 .716-.256 1.329-.771 1.841a2.487 2.487 0 0 1-1.841.777zm-7.762 16.042c.708 0 1.166-.615 1.373-1.847.072-.442.111-1.328.111-2.645h1.484c0 2.174-.197 3.664-.588 4.444-.657 1.365-1.967 2.039-3.923 2.039-2.636 0-3.961-1.491-3.961-4.473V17.828h-2.834V16.56h.434c1.552 0 2.863-.87 3.942-2.622.925-1.468 1.398-2.972 1.427-4.499h1.33v7.121h3.026v1.268h-3.026V28.85c0 1.3.4 1.953 1.205 1.953zm-7.52.24v1.27h-6.168V20.692c0-.804-.096-1.381-.289-1.732-.279-.512-.805-.77-1.58-.77-.733 0-1.321.356-1.764 1.073-.438.719-.661 1.777-.661 3.177v5.958c0 1.338.063 2.087.198 2.232.265.279.737.414 1.412.414h.265v1.27h-8.037v-1.27h.428c.82 0 1.258-.385 1.321-1.154.028-.183.043-.703.043-1.559v-7.909c0-1.23-.091-1.977-.274-2.247-.178-.271-.564-.405-1.152-.405h-.366v-1.267h5.681v2.058c.362-.733.94-1.327 1.73-1.789.79-.462 1.667-.693 2.636-.693 3.176 0 4.765 1.721 4.765 5.167v7.2c0 .799.006 1.279.019 1.443.058.769.55 1.154 1.461 1.154h.332zm-26.61-3.539c.453 2.482 1.552 3.723 3.292 3.723 1.219 0 2.264-.51 3.142-1.548.776-.905 1.17-1.877 1.185-2.916h1.605c-.044 1.404-.637 2.713-1.774 3.934-1.302 1.396-2.906 2.098-4.809 2.098-2.453 0-4.346-.798-5.677-2.415-1.242-1.472-1.859-3.463-1.859-5.974 0-2.439.703-4.45 2.119-6.028 1.409-1.531 3.176-2.298 5.311-2.298 2.323 0 4.078.781 5.263 2.341 1.05 1.371 1.585 3.247 1.599 5.625h-9.642c0 1.486.082 2.631.245 3.458zm4.993-4.786c0-3.621-.839-5.432-2.506-5.432-1.556 0-2.443 1.342-2.665 4.021a27.56 27.56 0 0 0-.067 1.411h5.238zm-15.852 7.499a4.28 4.28 0 0 1-1.12 1.481c-.877.731-1.908 1.097-3.094 1.097-2.308 0-4.009-.924-5.108-2.781-.867-1.433-1.291-3.289-1.291-5.579 0-2.087.578-3.938 1.735-5.559 1.311-1.82 3.035-2.734 5.171-2.734 1.691 0 2.851.483 3.465 1.457-.087-.424-.13-1.912-.13-4.455-.029-.944-.115-1.547-.26-1.814-.247-.452-.786-.681-1.625-.681h-.434V9.466l6.651-.507v20.256c0 .645.077 1.097.241 1.338.206.336.636.509 1.286.509h.285v1.252h-5.682l-.09-2.097zm-.335-7.494c0-3.343-.881-5.016-2.636-5.016-1.215 0-2.029.863-2.438 2.587-.202.893-.308 2.271-.308 4.141 0 4.203.896 6.31 2.679 6.31 1.272 0 2.11-.884 2.506-2.635.13-.577.197-1.308.197-2.183v-3.204zm-16.427 7.536c-.289.562-.716 1.075-1.297 1.526a4.632 4.632 0 0 1-2.925 1.01c-1.831 0-3.122-.5-3.874-1.51-.598-.789-.901-2.029-.901-3.712v-6.625c0-1.491-.068-2.362-.198-2.611-.183-.335-.612-.508-1.296-.508h-.135v-1.325h5.986V28.13c0 1.54.641 2.309 1.922 2.309 1.061 0 1.778-.731 2.15-2.222.163-.596.241-1.414.241-2.453v-4.809c0-1.645-.077-2.552-.237-2.728-.231-.262-.713-.399-1.451-.399h-.452v-1.325h6.535v11.868c0 1.299.077 2.058.236 2.26.202.279.593.413 1.166.413h.41v1.271h-5.802l-.078-2.056zm-.013-.326l-.007.005.007-.004v-.001zm.108-.06l.071-.04.036-.04c-.034.019-.074.047-.11.072l.003.008zM74.22 20.427c-.597 0-1.074-.186-1.426-.551a1.429 1.429 0 0 1-.458-1.181c0-.043.024-.154.063-.33-.588.739-1.05 2.004-1.397 3.784-.28 1.426-.424 2.734-.424 3.913v3.145c0 .74.086 1.221.25 1.443.202.269.752.394 1.638.394h.535v1.27h-8.644v-1.27h.323c.593 0 1.021-.106 1.282-.317.259-.203.385-.722.385-1.52v-6.859c0-2.363-.063-3.679-.193-3.941-.183-.426-.539-.637-1.07-.637h-.452v-1.267h5.416l.11 3.087c.598-2.339 1.865-3.51 3.812-3.51.713 0 1.282.192 1.711.581.429.389.646.902.646 1.544 0 .561-.183 1.056-.545 1.496-.415.481-.935.726-1.562.726zm-19.477 2.112h-1.522v6.562c0 .779.149 1.288.448 1.549.298.269.858.394 1.682.394h1.069v1.27H46.145v-1.27h.39c.796 0 1.335-.106 1.624-.328.352-.278.526-.817.526-1.615V12.836c0-1.054-.212-1.696-.631-1.932-.246-.142-.882-.216-1.908-.216V9.439h8.636c2.593 0 4.646.484 6.163 1.448 1.784 1.128 2.675 2.838 2.675 5.134 0 2.211-.878 3.875-2.641 5.002-1.562 1.008-3.638 1.516-6.236 1.516zm.038-11.769h-1.445v10.318h1.445c2.747 0 4.125-1.683 4.125-5.05 0-3.51-1.378-5.268-4.125-5.268zm-23.67 20.389l4.154-6.541 1.253-4.266 2.621.911c-.231 3.297-1.31 6.645-3.643 9.896h-4.385zM19.604 6.027l-3.193-.57v2.331l2.451 2.277-3.419-.288s.11.173 2.956 3.185l12.992 2.16 2.274 1.479-5.918.284-2.448 8.925-8.035 5.349h-5.243l1.769-3.472-.287-.115-4.73 3.588H7.636l4.841-6.772c.228-1.931.113-1.078.4-4.549l-.74-1.021-1.938 7.503-4.046 4.839H5.127l2.392-3.358 3.361-10.289-.855.394-1.482 4.096-1.024.566s-2.392 5.801-3.646 8.638C2.053 28.6 0 25.075 0 18.929 0 9.718 7.92-.001 19.825-.001c11.45 0 17.551 9.097 18.572 13.813l-10.081-2.728-8.712-5.057zm.221-4.781c-11.163 0-18.456 9.158-18.456 17.682 0 4.896 1.195 7.334 2.506 9.671 1.653-4.433 4.957-13.251 4.957-13.251s1.539-.794 1.539-.678l2.219-5.629 1.427-.739 1.768-3.754 3.867.626 7.864 4.376 8.828 2.446c-2.274-5.798-8.712-10.75-16.519-10.75zM22.9 31.159l5.079-6.315.511.966-2.853 5.349H22.9zm12.876-11.033l-1.822 4.262-1.657 1.422-3.296 5.349h-2.169l2.169-3.82 1.705-1.413 2.458-6.881 2.612 1.081zm-6.602-2.674l3.354 1.366-2.391 4.492-1.31.231.347-2.619-.347-.512.347-2.958zm-9.465 21.546c-4.841 0-10.763-1.702-15.037-6.935h30.024c-3.479 4.492-9.455 6.935-14.987 6.935z" id="path-1" class="cls-2" fill-rule="evenodd"/></svg>