<svg xmlns="http://www.w3.org/2000/svg" preserveAspectRatio="xMidYMid" width="193" height="38" viewBox="0 0 193 38"><defs><style>.cls-2{fill:#fff}</style></defs><path d="M181.969 32.465h-2.205l3.216-5.537-2.481-13.703h2.481l1.562 10.89h.093l5.79-10.89h2.573l-11.029 19.24zm-17.002.635c.276-.727.734-1.452.919-1.997 3.86 0 7.536-1.18 8.823-6.172h-.092c-.919 1.452-2.574 2.087-4.319 2.087-3.402 0-5.147-2.45-5.147-5.717 0-3.992 2.664-8.439 7.168-8.439 2.022 0 4.043 1.088 4.412 2.813v.091h.092l.367-2.541h2.205l-2.481 11.706c-1.745 7.169-7.352 8.169-11.947 8.169zm7.352-18.242c-3.216 0-4.963 3.993-4.963 6.443 0 1.997 1.195 3.722 3.492 3.722 3.402 0 5.056-3.812 5.056-6.535 0-2.178-1.195-3.63-3.585-3.63zm-7.261.454c-.55 0-.826 0-1.286.091-1.287.363-2.298 1.18-3.033 2.269-.552.816-.919 2.178-1.104 3.176l-1.286 6.08h-2.297l2.849-13.703h2.205l-.735 2.904h.092c1.103-1.906 2.666-3.267 5.055-3.267h.828l-.552 2.45h-.736zm-20.127 5.446c-.092.363-.092.815-.092 1.178 0 2.087 1.747 3.267 3.584 3.267 2.022 0 3.401-.907 4.044-2.54h2.206c-.735 2.995-3.216 4.537-6.25 4.537-4.596 0-5.882-3.085-5.882-5.445 0-5.263 3.309-8.893 7.169-8.893 4.044 0 5.882 2.268 5.882 6.079 0 .727-.183 1.452-.276 1.817h-10.385zm5.147-5.9c-2.757 0-4.137 1.725-4.871 3.903h8.088c.183-1.906-.736-3.903-3.217-3.903zm-10.57 12.07h-2.297l1.746-7.987c.092-.543.367-1.723.367-2.177 0-1.271-1.102-1.906-2.481-1.906-1.195 0-2.573.726-3.401 1.634-.827.635-1.195 1.724-1.562 2.814l-1.562 7.622h-2.298l2.941-13.703h2.205l-.459 2.087h.092c1.103-1.543 3.033-2.45 4.871-2.45 2.665 0 3.952 1.179 3.952 3.539 0 .635-.184 1.634-.459 2.722l-1.655 7.805zm-20.863-16.789l-1.287 5.99h9.927l-.46 2.087h-9.926l-1.379 6.534h10.753l-.459 2.178h-13.327l4.044-18.967h13.235l-.459 2.178h-10.662zM100.54 26.928l3.952-18.967h5.33l-3.952 18.967h-5.33zm-10.57-5.717c0 1.452.552 2.722 2.206 2.722 1.103 0 1.838-.544 2.114-.997h5.055c-.368.907-1.379 4.355-7.353 4.355-4.963 0-6.985-2.723-6.985-6.08 0-6.353 4.871-8.44 8.364-8.44 3.124 0 6.801 1.725 6.801 6.08 0 .727 0 1.542-.275 2.36H89.97zm5.239-3.176c0-.999-.643-1.815-2.022-1.815-1.379 0-2.298.816-2.758 2.268h4.78v-.453zm-16.543-.999c-.276-.272-.736-.453-1.287-.453-2.39 0-2.941 2.995-2.941 4.355 0 1.271.276 2.543 1.838 2.543 1.378 0 2.022-1.272 2.298-2.088h5.146c-.919 3.992-3.492 5.898-7.536 5.898-5.882 0-7.077-3.72-7.077-6.353 0-4.628 3.033-8.167 8.364-8.167 3.86 0 6.801 1.725 6.709 5.627h-5.147c.092-.726-.091-1.089-.367-1.362zm-9.651 9.892h-6.617l-2.114-5.355-4.411 5.355h-7.261l9.099-10.073-4.412-8.894h6.433l1.839 4.992 3.768-4.992h7.077l-7.996 8.894 4.595 10.073zM32.252 33.1c-9.834 6.535-22.517 6.535-27.756 0-2.114-2.722-2.849-5.99-2.297-9.439.919-5.626 5.33-11.253 12.407-15.882 2.206-1.452 3.952-1.452 4.963-1.179 1.287.363 2.022 1.179 2.298 1.725.46.907 1.654 3.175-2.849 6.715-9.099 6.896-12.224 13.158-8.915 17.606 3.401 4.536 14.521 4.356 21.966-.454 2.297-1.542 4.319-2.814 6.249-5.082.184-.272.46-.272.552-.182.184.182.275.455.091.545-1.47 1.815-3.676 3.63-6.709 5.627zm-7.812-2.905c-2.205 1.453-3.952 1.453-4.963 1.18-1.287-.272-2.021-1.18-2.297-1.634-.552-.998-1.655-3.265 2.849-6.715 9.098-6.988 12.223-13.25 8.915-17.606-3.401-4.628-14.522-4.356-21.966.454-2.298 1.452-4.32 2.813-6.25 4.992-.275.272-.459.272-.643.181-.092-.181-.184-.363 0-.545 1.47-1.815 3.676-3.63 6.617-5.626 9.926-6.535 22.609-6.535 27.848.091 2.114 2.631 2.849 5.899 2.298 9.438-.92 5.536-5.331 11.163-12.408 15.79z" id="path-1" class="cls-2" fill-rule="evenodd"/></svg>