<svg xmlns="http://www.w3.org/2000/svg" preserveAspectRatio="xMidYMid" width="124" height="66" viewBox="0 0 124 66"><defs><style>.cls-2{fill:#b2b2b2}</style></defs><path d="M121.315 28.908c-1.495 0-2.7-1.218-2.7-2.728v-5.713a2.705 2.705 0 0 1 2.7-2.712c1.48 0 2.685 1.217 2.685 2.712v5.713c0 1.51-1.205 2.728-2.685 2.728zM101.457 66c-6.634 0-11.381-5.046-11.381-11.269 0-6.217 4.747-11.263 11.381-11.263 6.623 0 11.38 5.046 11.38 11.263 0 6.223-4.757 11.269-11.38 11.269zm0-16.991c-3.231 0-5.629 2.562-5.629 5.722 0 3.162 2.398 5.725 5.629 5.725 3.218 0 5.615-2.563 5.615-5.725 0-3.16-2.397-5.722-5.615-5.722zm5.013-20.101c-1.482 0-2.685-1.218-2.685-2.728V12.969c0-1.493 1.203-2.714 2.685-2.714a2.712 2.712 0 0 1 2.721 2.714V26.18a2.713 2.713 0 0 1-2.721 2.728zm-14.798 5.423a2.703 2.703 0 0 1-2.696-2.719V2.716A2.704 2.704 0 0 1 91.672 0c1.482 0 2.687 1.217 2.687 2.716v28.896c0 1.505-1.205 2.719-2.687 2.719zm-23.757 20.4c0-6.501 4.85-11.263 11.473-11.263 2.559 0 4.446.625 4.957.779v5.842c-.221-.116-1.97-1.166-4.575-1.166-3.508 0-5.952 2.475-5.952 5.808 0 3.232 2.339 5.808 5.952 5.808 2.559 0 4.344-1.024 4.575-1.156v5.844c-.684.19-2.536.773-4.957.773-6.113 0-11.473-4.259-11.473-11.269zm8.914-25.823c-1.482 0-2.685-1.218-2.685-2.728V12.969c0-1.493 1.203-2.714 2.685-2.714 1.495 0 2.7 1.221 2.7 2.714V26.18c0 1.51-1.205 2.728-2.7 2.728zm-14.819 0c-1.494 0-2.698-1.218-2.698-2.728v-5.713a2.704 2.704 0 0 1 2.698-2.712c1.471 0 2.685 1.217 2.685 2.712v5.713c0 1.51-1.214 2.728-2.685 2.728zm-.88 19.89c-.081-.022-2.373-.661-4.249-.661-2.189 0-3.37.735-3.37 1.78 0 1.328 1.598 1.787 2.489 2.078l1.505.48c3.532 1.132 5.142 3.574 5.142 6.219 0 5.47-4.759 7.306-8.928 7.306-2.894 0-5.603-.536-5.87-.596v-5.006c.486.121 2.767.806 5.142.806 2.697 0 3.948-.795 3.948-2.03 0-1.105-1.078-1.736-2.432-2.168-.324-.109-.823-.264-1.157-.381-3.034-.964-5.558-2.757-5.558-6.359 0-4.071 3.022-6.806 8.035-6.806 2.652 0 5.14.651 5.303.694v4.644zm-13.952-19.89c-1.481 0-2.698-1.218-2.698-2.728V12.969c0-1.493 1.217-2.714 2.698-2.714a2.707 2.707 0 0 1 2.698 2.714V26.18c0 1.51-1.204 2.728-2.698 2.728zM35.067 43.855h5.439v21.758h-5.439V43.855zm-2.708-9.524a2.714 2.714 0 0 1-2.71-2.719V2.716A2.715 2.715 0 0 1 32.359 0c1.482 0 2.697 1.217 2.697 2.716v28.896c0 1.505-1.215 2.719-2.697 2.719zm-21.196 20.4c0-6.501 4.857-11.263 11.469-11.263 2.559 0 4.446.625 4.967.779v5.842c-.219-.116-1.968-1.166-4.574-1.166-3.519 0-5.957 2.475-5.957 5.808 0 3.232 2.334 5.808 5.957 5.808 2.559 0 4.331-1.024 4.574-1.156v5.844c-.682.19-2.535.773-4.967.773-6.107 0-11.469-4.259-11.469-11.269zm6.363-25.823c-1.487 0-2.699-1.218-2.699-2.728V12.969a2.713 2.713 0 0 1 2.699-2.714c1.483 0 2.698 1.221 2.698 2.714V26.18c0 1.51-1.215 2.728-2.698 2.728zm-14.827 0C1.215 28.908 0 27.69 0 26.18v-5.713a2.712 2.712 0 0 1 2.699-2.712 2.71 2.71 0 0 1 2.698 2.712v5.713c0 1.51-1.212 2.728-2.698 2.728z" id="path-1" class="cls-2" fill-rule="evenodd"/></svg>