<svg xmlns="http://www.w3.org/2000/svg" preserveAspectRatio="xMidYMid" width="92" height="52" viewBox="0 0 92 52"><defs><style>.cls-2{fill:#b2b2b2}</style></defs><path d="M84.455 51.523l-31.847.114 19.706-14.294c5.765-4.836 8.83-5.22 8.83-5.22 8.591-1.352 10.606 7.715 10.606 7.715 1.787 10.651-7.295 11.685-7.295 11.685zM52.266 49.43L64.77 18.432c2.662-6.695 8.71-6.51 8.71-6.51 6.011.186 7.974 4.775 7.974 4.775 3.68 8.431-2.056 12.824-2.056 12.824L52.266 49.43zm-.593-3.345l-4.238-28.923s-.719-3.507 3.367-5.707l-3.956-.511s-.724-9.395 8.306-10.89c0 0 6.966-1.087 9.792 7.034 0 0 1.139 3.283-1.683 9.795L51.673 46.085zm-11.459.064L26.578 12.822s-2.36-5.612 3.436-10.665c0 0 6.564-4.991 11.294.285 0 0 4.348 4.272 2.324 17.2l-3.418 26.507zm-.518 3.653l-27.133-19.91s-5.735-4.391-2.055-12.824c0 0 1.963-4.588 7.974-4.774 0 0 6.503-.186 8.711 6.511l12.503 30.997zM10.818 32.495s3.064.385 8.83 5.22l19.705 14.294-31.846-.114S-1.576 50.862.212 40.21c0 0 2.015-9.066 10.606-7.715z" id="path-1" class="cls-2" fill-rule="evenodd"/></svg>