<svg xmlns="http://www.w3.org/2000/svg" preserveAspectRatio="xMidYMid" width="144" height="38" viewBox="0 0 144 38"><defs><style>.cls-2{fill:#b2b2b2}</style></defs><path d="M143.989 1.063l-4.532 28.445a1.553 1.553 0 0 1-1.538 1.302h-4.623a.929.929 0 0 1-.923-1.07L136.971.775a.93.93 0 0 1 .922-.781h5.174a.927.927 0 0 1 .922 1.069zm-15.318 28.445a1.551 1.551 0 0 1-1.536 1.302h-4.831a.928.928 0 0 1-.922-1.071l.24-1.476s-2.65 3.039-7.426 3.039c-2.783 0-5.119-.794-6.755-2.701-1.782-2.075-2.51-5.049-1.997-8.16.985-6.237 6.047-10.684 11.973-10.684 2.585 0 5.173.556 6.335 2.227l.375.538.236-1.486a.932.932 0 0 1 .923-.78h5.363a.926.926 0 0 1 .922 1.067l-2.9 18.185zm-6.406-12.669c-.817-.948-2.053-1.447-3.577-1.447-3.056 0-5.527 2.103-6.01 5.111-.252 1.475.047 2.801.84 3.731.801.937 2.046 1.434 3.602 1.434 3.103 0 5.536-2.038 6.054-5.073.235-1.469-.088-2.802-.909-3.756zm-28.252 3.694h-3.544c-.766 0-1.418.552-1.538 1.302l-1.284 8.063c-.083.525-.54.912-1.076.912h-5.748a.929.929 0 0 1-.922-1.07l4.53-28.445a1.551 1.551 0 0 1 1.537-1.301H97.17c3.747 0 6.57.98 8.163 2.834 1.449 1.686 1.93 4.095 1.429 7.16-1.113 7.009-5.371 10.545-12.749 10.545zm3.904-13.242c-.984-1.141-2.894-1.141-4.915-1.141h-.775a.932.932 0 0 0-.923.78l-1.185 7.436h1.69c2.97 0 6.041 0 6.653-3.984.223-1.397.045-2.409-.545-3.091zM62.163 37.334a1.56 1.56 0 0 1-1.279.664h-5.386c-.758 0-1.201-.848-.762-1.46l5.583-7.803-5.936-17.256a.926.926 0 0 1 .884-1.223h5.3c.687 0 1.293.447 1.49 1.1l3.152 10.422 7.437-10.847a1.563 1.563 0 0 1 1.287-.675h5.391c.754 0 1.197.838.768 1.451L62.163 37.334zM48.78 29.508a1.553 1.553 0 0 1-1.537 1.302h-4.831a.928.928 0 0 1-.922-1.071l.24-1.476s-2.65 3.039-7.426 3.039c-2.782 0-5.118-.794-6.755-2.701-1.782-2.075-2.51-5.049-1.997-8.16.985-6.237 6.048-10.684 11.973-10.684 2.585 0 5.174.556 6.336 2.227l.375.538.235-1.486a.932.932 0 0 1 .923-.78h5.363a.926.926 0 0 1 .922 1.067L48.78 29.508zm-6.407-12.669c-.816-.948-2.053-1.447-3.576-1.447-3.056 0-5.528 2.103-6.011 5.111-.252 1.475.047 2.801.841 3.731.8.937 2.046 1.434 3.601 1.434 3.103 0 5.536-2.038 6.054-5.073.235-1.469-.088-2.802-.909-3.756zm-28.252 3.694h-3.544c-.766 0-1.418.552-1.537 1.302l-1.223 7.672A1.551 1.551 0 0 1 6.28 30.81H.932a.928.928 0 0 1-.922-1.07L4.539 1.295A1.552 1.552 0 0 1 6.076-.006h11.202c3.747 0 6.57.98 8.163 2.834 1.45 1.686 1.93 4.095 1.429 7.16-1.112 7.009-5.371 10.545-12.749 10.545zm3.905-13.242C17.041 6.15 15.131 6.15 13.11 6.15h-.775a.931.931 0 0 0-.922.78l-1.186 7.436h1.69c2.97 0 6.041 0 6.653-3.984.223-1.397.045-2.409-.544-3.091z" id="path-1" class="cls-2" fill-rule="evenodd"/></svg>