<svg xmlns="http://www.w3.org/2000/svg" preserveAspectRatio="xMidYMid" width="164" height="39" viewBox="0 0 164 39"><defs><style>.cls-2{fill:#b2b2b2}</style></defs><path d="M163.961 23.794h-16.528c.167 3.493 3.488 6.404 7.039 6.404 2.787 0 5.51-1.554 6.506-4.174h2.452c-1.323 3.687-4.907 6.209-8.925 6.209-5.243 0-9.459-4.171-9.459-9.25 0-5.044 4.216-9.315 9.426-9.315 5.313 0 9.528 4.367 9.528 9.48 0 .223-.039.417-.039.646zm-9.456-8.088c-3.62 0-6.506 2.587-7.072 6.049h14.173c-.597-3.462-3.45-6.049-7.101-6.049zm-15.576 5.758v10.352h-2.326V14.12h2.326v2.556h.062c.998-2.264 2.756-2.846 5.113-3.008v2.396c-3.186.258-5.175 2.23-5.175 5.4zm-9.284 7.247h-.068c-1.594 2.326-4.247 3.522-7.07 3.522-5.439 0-9.756-3.977-9.756-9.313 0-5.305 4.413-9.252 9.756-9.252 2.856 0 5.511 1.166 7.07 3.559h.068v-3.105h2.32v17.692h-2.32v-3.103zm-7.138-13.003c-4.311 0-7.431 3.136-7.431 7.308 0 4.14 3.186 7.182 7.431 7.182 4.116 0 7.268-3.269 7.268-7.215 0-3.946-3.152-7.275-7.268-7.275zm-15.31 13.365h-.066c-1.068 2.18-3.435 3.188-5.837 3.188-2.369 0-4.769-.812-6.271-2.664-1.298-1.594-1.599-3.739-1.599-5.72v-9.816h2.334v9.782c0 3.673 1.366 6.371 5.536 6.371 1.532 0 2.733-.392 3.868-1.432 1.602-1.491 1.9-3.251 1.9-5.328v-9.393h2.336v17.777h-2.201v-2.765zm-20.353-.361h-.067c-1.559 2.327-4.245 3.524-7.069 3.524-5.441 0-9.758-3.982-9.758-9.316 0-5.305 4.419-9.251 9.758-9.251 2.824 0 5.51 1.197 7.069 3.56h.067v-3.107h2.325v24.843h-2.325V28.712zm-7.136-13.004c-4.316 0-7.431 3.136-7.431 7.308 0 4.142 3.183 7.182 7.431 7.182 4.118 0 7.27-3.269 7.27-7.215 0-3.946-3.152-7.275-7.27-7.275zM67.05 24.869c0 2.015-.897 3.899-2.524 5.304-1.595 1.376-3.71 2.132-5.957 2.132h-.023c-2.373 0-4.654-.891-6.261-2.455-1.435-1.395-2.229-3.206-2.229-5.102h2.403c0 1.269.539 2.494 1.523 3.447 1.158 1.124 2.823 1.772 4.565 1.772h.021c3.353 0 6.078-2.286 6.078-5.097-.002-2.107-1.198-3.78-7.017-5.093-2.369-.533-3.965-1.248-5.029-2.247-1.132-1.069-1.685-2.492-1.685-4.35 0-3.667 3.373-6.651 7.521-6.651 1.988 0 3.861.666 5.278 1.877 1.46 1.25 2.268 2.937 2.268 4.748h-2.404c0-2.363-2.305-4.286-5.142-4.286-2.776 0-5.12 1.976-5.12 4.312 0 2.138.753 3.393 4.856 4.318 4.382.987 8.867 2.637 8.878 7.371zM33.352 39H6.671C3.003 39 0 36.074 0 32.499v-26C0 2.923 3.003-.003 6.671-.003h26.681c3.667 0 6.67 2.926 6.67 6.502v26c0 3.575-3.003 6.501-6.67 6.501zm-.607-29.842c0-1.138-.955-2.068-2.121-2.068H9.397c-1.166 0-2.121.93-2.121 2.068v20.685c0 1.136.955 2.063 2.121 2.063h21.227c1.166 0 2.121-.927 2.121-2.063V9.158zm-8.486 15.659H15.77c-.668 0-1.212-.53-1.212-1.182v-8.273c0-.65.544-1.18 1.212-1.18h8.489c.665 0 1.211.53 1.211 1.18v8.273c0 .652-.546 1.182-1.211 1.182z" id="path-1" class="cls-2" fill-rule="evenodd"/></svg>